<svg width="291" height="252" viewBox="0 0 291 252" fill="none" xmlns="http://www.w3.org/2000/svg">
<path d="M273.815 92.7603C273.815 167.943 216.861 251.397 141.678 251.397C66.4955 251.397 7 227.477 7 152.295C7 77.1119 51.9749 6 127.158 6C202.34 6 273.815 17.5777 273.815 92.7603Z" fill="#FEEFED"/>
<path d="M200.082 169.411L189.411 148.377C189.411 148.377 181.198 160.199 182.514 168.343C183.681 175.56 188.377 182.423 192.976 183.869C197.574 185.315 201.754 182.785 201.754 182.785L200.082 169.411Z" fill="#BFCF59"/>
<path d="M103.111 175.144C106.065 156.647 109.75 138.269 114.16 120.062C118.57 101.856 123.703 83.826 129.545 66.0249C130.341 63.6022 131.148 61.1826 131.97 58.7691C132.169 58.1852 132.367 57.6028 132.58 57.025C132.352 57.6426 132.615 56.9563 132.663 56.8569C132.795 56.5909 132.937 56.3296 133.098 56.0789C133.184 55.9459 133.628 55.4965 133.189 55.9367C133.34 55.7839 133.486 55.6295 133.645 55.4828C133.173 55.9184 133.668 55.5072 133.794 55.4262C134.09 55.281 134.055 55.2963 133.685 55.469C133.979 55.4033 133.886 55.4155 133.408 55.5042C133.265 55.4812 133.121 55.4583 132.979 55.4354C133.081 55.4553 133.182 55.4828 133.282 55.5195C132.879 55.3391 132.81 55.3208 133.074 55.4629C133.313 55.6249 133.274 55.5898 132.96 55.359C133.066 55.3681 133.326 55.7059 133.395 55.7793C133.546 55.9413 133.785 56.2883 133.524 55.9153C133.86 56.3984 134.165 56.8982 134.435 57.4209C134.559 57.6624 134.682 57.907 134.79 58.1546C134.521 57.5417 134.878 58.4588 134.914 58.578C135.59 60.7623 135.776 63.0886 137.08 65.0436C137.879 66.2389 139.553 66.8687 140.856 66.031C142.051 65.2622 142.701 63.5472 141.846 62.2663C141.719 62.0768 141.599 61.8857 141.492 61.6839C141.438 61.5831 141.188 60.9075 141.395 61.5005C141.239 61.0527 141.098 60.6033 140.981 60.1432C140.724 59.1359 140.545 58.1088 140.236 57.1152C139.597 55.0395 138.419 52.7513 136.716 51.3466C135.77 50.5671 134.666 50.0015 133.409 50C132.031 49.9985 130.75 50.697 129.744 51.5897C128.066 53.08 127.348 55.252 126.649 57.3063C123.521 66.4988 120.584 75.757 117.837 85.0702C112.345 103.698 107.621 122.549 103.678 141.562C101.468 152.222 99.5077 162.931 97.7909 173.681C97.564 175.096 98.1557 176.711 99.7177 177.065C101.042 177.366 102.869 176.663 103.111 175.144Z" fill="#ED6656"/>
<path d="M141.012 65.9878C142.874 65.7952 144.746 65.7524 146.614 65.8777C147.045 65.9067 147.474 65.9434 147.903 65.9908C147.887 65.9893 148.638 66.081 148.394 66.0474C148.119 66.0092 148.818 66.1146 148.881 66.1238C149.829 66.2782 150.765 66.4784 151.696 66.7123C153.094 67.0638 154.754 66.2614 155.089 64.7909C155.416 63.3633 154.66 61.7828 153.163 61.4068C149.203 60.4102 145.075 60.0678 141.012 60.4866C139.58 60.6349 138.181 61.6468 138.253 63.238C138.314 64.5999 139.474 66.1467 141.012 65.9878Z" fill="#ED6656"/>
<path d="M155.71 63.9659C155.894 63.4783 156.082 62.9922 156.28 62.5107C156.334 62.3808 156.387 62.2509 156.441 62.121C156.317 62.4144 156.294 62.4664 156.375 62.2799C156.481 62.043 156.582 61.8045 156.689 61.5676C157.161 60.5221 157.673 59.4934 158.254 58.5045C158.518 58.0566 158.797 57.6149 159.094 57.1884C159.177 57.0707 159.26 56.9546 159.346 56.8384C159.127 57.1135 159.111 57.1349 159.3 56.8996C159.474 56.6963 159.645 56.4914 159.83 56.2973C159.962 56.1598 160.111 56.0359 160.239 55.8968C160.443 55.7241 160.423 55.7318 160.177 55.9198C160.475 55.7455 160.439 55.7425 160.063 55.9121C159.763 55.9855 159.461 55.9855 159.159 55.9121C158.713 55.7088 158.621 55.6737 158.88 55.8036C159.059 55.9137 159.255 56.0023 159.45 56.0864C159.027 55.5376 158.605 54.9904 158.182 54.4417C164.208 71.1499 169.994 87.9436 175.531 104.818C181.037 121.598 186.299 138.458 191.316 155.391C194.15 164.958 196.905 174.546 199.582 184.157C199.969 185.544 201.557 186.537 202.976 186.079C204.396 185.62 205.317 184.18 204.903 182.695C202.118 172.7 199.25 162.728 196.296 152.78C193.356 142.881 190.332 133.007 187.225 123.159C184.102 113.263 180.896 103.394 177.605 93.5533C174.329 83.7601 170.971 73.9929 167.531 64.2563C166.667 61.8107 165.797 59.3666 164.922 56.924C164.485 55.7027 164.059 54.4769 163.605 53.2617C163.25 52.3079 162.781 51.6231 161.866 51.1615C161.426 50.9399 160.981 50.6831 160.497 50.5761C157.75 49.9754 155.727 52.4149 154.33 54.4111C153.205 56.0191 152.339 57.8044 151.568 59.602C151.156 60.5619 150.76 61.5264 150.391 62.5031C149.88 63.8528 150.957 65.5784 152.318 65.8872C153.886 66.2433 155.163 65.4103 155.71 63.9659Z" fill="#ED6656"/>
<path d="M170.207 187.036C180.103 185.994 190.069 185.715 200.01 186.203C201.454 186.273 202.833 184.887 202.769 183.452C202.7 181.9 201.557 180.777 200.01 180.7C190.071 180.211 180.105 180.491 170.207 181.533C168.777 181.685 167.376 182.691 167.448 184.285C167.509 185.645 168.67 187.198 170.207 187.036Z" fill="#ED6656"/>
<path d="M112.404 171.905C110.088 171.789 107.773 171.766 105.467 172.011C104.262 172.139 103.062 172.313 101.861 172.486C101.342 172.561 100.821 172.637 100.301 172.711C100.187 172.726 99.2279 172.859 99.7675 172.786C99.3965 172.836 99.024 172.884 98.6531 172.929C95.7024 173.301 92.7348 173.61 89.7581 173.581C89.0545 173.573 88.3525 173.547 87.652 173.498C87.3255 173.475 87.0005 173.446 86.6756 173.412C86.4901 173.393 86.3046 173.371 86.1191 173.35C85.9199 173.325 85.9337 173.327 86.1605 173.354C86.0686 173.341 85.9766 173.325 85.8846 173.312C84.4897 173.059 83.1087 172.763 81.7751 172.272C81.6923 172.242 81.2555 172.073 81.5973 172.209C81.9161 172.336 81.5743 172.199 81.5237 172.174C81.257 172.047 80.9903 171.921 80.7297 171.782C80.2009 171.499 79.6889 171.184 79.1969 170.843C79.0513 170.742 78.4059 170.213 78.8428 170.591C78.6405 170.417 78.4289 170.25 78.2281 170.073C77.7668 169.665 77.3268 169.233 76.9114 168.78C76.703 168.552 76.5006 168.319 76.3044 168.081C76.2309 167.992 76.1588 167.902 76.0868 167.81C76.4179 168.226 76.1604 167.905 76.099 167.815C75.7526 167.308 75.4047 166.806 75.0996 166.271C74.9494 166.007 74.8053 165.739 74.6689 165.467C74.6015 165.331 74.5386 165.195 74.4727 165.058C74.4512 165.013 74.2964 164.666 74.4298 164.972C74.5739 165.301 74.3869 164.859 74.3562 164.779C74.3026 164.64 74.252 164.5 74.2029 164.359C74.1064 164.079 74.0175 163.795 73.9393 163.509C73.8611 163.225 73.7937 162.939 73.7354 162.652C73.6879 162.415 73.6251 161.839 73.6787 162.412C73.6235 161.825 73.5913 161.244 73.6097 160.655C73.6189 160.36 73.6358 160.064 73.6618 159.769C73.6664 159.712 73.691 159.347 73.7078 159.342C73.7247 159.338 73.6128 159.882 73.6848 159.555C73.8059 158.997 73.9086 158.447 74.0895 157.904C74.1232 157.803 74.3777 157.118 74.2229 157.513C74.0711 157.903 74.3547 157.248 74.4037 157.151C74.6367 156.698 74.9126 156.276 75.2008 155.859C75.489 155.44 75.1364 155.912 75.1211 155.957C75.1472 155.877 75.3081 155.732 75.3709 155.659C75.5442 155.459 75.7235 155.266 75.909 155.078C76.2968 154.684 76.7137 154.324 77.1383 153.97C77.2333 153.89 77.5506 153.666 77.0923 153.999C77.2119 153.912 77.3299 153.821 77.4495 153.736C77.7269 153.536 78.0105 153.342 78.2971 153.155C78.8474 152.796 79.4176 152.467 80.0001 152.163C80.6439 151.827 81.3015 151.52 81.9682 151.232C81.8655 151.277 81.4946 151.423 81.9943 151.225C82.1874 151.148 82.3806 151.07 82.5737 150.995C82.8864 150.875 83.1991 150.758 83.5149 150.645C86.2479 149.661 89.0606 148.926 91.8688 148.19C92.9142 147.917 94.0469 146.703 93.8937 145.537C93.6055 143.325 92.7655 141.366 91.1284 139.796C89.6584 138.385 87.7608 137.37 85.7835 136.883C81.3352 135.782 76.4562 137.295 72.4371 139.194C68.0701 141.257 64.6779 144.559 61.8928 148.447C59.382 151.964 57.9319 155.853 58.0025 160.211C58.1419 168.912 63.1144 176.919 70.1455 181.825C77.4679 186.935 86.7875 188.728 95.5844 188.71C99.9882 188.701 104.372 188.21 108.762 187.927C111.975 187.721 115.191 187.617 118.401 187.36C119.602 187.264 120.802 187.154 122.001 187.035C123.433 186.892 124.832 185.871 124.76 184.283C124.699 182.915 123.539 181.379 122.001 181.532C118.437 181.885 114.869 182.116 111.293 182.288C107.631 182.466 103.981 182.816 100.321 183.041C98.4078 183.158 96.4933 183.23 94.5773 183.201C93.538 183.186 92.5003 183.141 91.4626 183.067C90.9629 183.031 90.4647 182.987 89.9665 182.938C89.7336 182.915 89.5006 182.891 89.2691 182.865C89.171 182.854 88.1471 182.729 88.5671 182.784C86.5943 182.524 84.6369 182.126 82.7209 181.595C81.8563 181.355 80.9995 181.086 80.1534 180.786C79.692 180.622 79.2352 180.451 78.7815 180.269C78.7156 180.243 77.9722 179.925 78.5393 180.173C78.2419 180.043 77.9446 179.912 77.6503 179.776C75.9304 178.976 74.278 178.033 72.7329 176.936C72.5689 176.819 72.408 176.699 72.2455 176.583C71.6017 176.119 72.6532 176.93 72.0416 176.425C71.6707 176.119 71.2982 175.815 70.938 175.494C70.2176 174.852 69.5339 174.171 68.8917 173.452C68.5774 173.099 68.2739 172.735 67.9781 172.367C68.3843 172.874 67.9168 172.278 67.8616 172.203C67.7267 172.02 67.5949 171.833 67.4661 171.645C66.9419 170.886 66.4606 170.099 66.0238 169.287C65.803 168.877 65.593 168.463 65.3953 168.043C65.2957 167.832 65.2037 167.618 65.1056 167.407C65.3324 167.896 65.1546 167.526 65.1117 167.421C64.7438 166.482 64.4112 165.533 64.1506 164.558C63.933 163.74 63.769 162.915 63.6356 162.08C63.746 162.772 63.631 162.019 63.6203 161.906C63.5973 161.68 63.5774 161.453 63.562 161.227C63.5252 160.703 63.5099 160.177 63.5176 159.651C63.5237 159.278 63.539 158.907 63.5682 158.535C63.585 158.314 63.6111 158.092 63.6325 157.872C63.559 158.584 63.6402 157.849 63.6617 157.727C63.8134 156.857 64.0372 156.001 64.3392 155.173C64.376 155.07 64.6641 154.39 64.3898 155.011C64.4802 154.807 64.5722 154.607 64.6718 154.408C64.8741 154.003 65.0979 153.611 65.3355 153.224C65.8674 152.357 66.4514 151.53 67.0446 150.705C67.5443 150.011 66.7166 151.099 67.2546 150.428C67.4202 150.222 67.5857 150.015 67.7558 149.812C68.0946 149.406 68.4441 149.008 68.8028 148.62C69.5048 147.865 70.2467 147.143 71.0407 146.485C71.0882 146.445 71.7412 145.951 71.2584 146.304C71.5281 146.107 71.7995 145.914 72.0769 145.728C72.503 145.444 72.9383 145.173 73.3829 144.916C73.9071 144.612 74.4436 144.329 74.9893 144.063C75.2253 143.949 75.4644 143.843 75.7005 143.732C75.9994 143.602 76.0209 143.591 75.7649 143.698C75.9274 143.631 76.0898 143.567 76.2523 143.502C77.313 143.091 78.3983 142.747 79.505 142.481C80.0951 142.339 80.6883 142.235 81.2846 142.122C81.3827 142.104 81.8288 142.04 81.3122 142.11C81.6126 142.069 81.9161 142.037 82.2196 142.02C82.6963 141.992 83.1638 142.02 83.639 142.05C84.3273 142.093 83.0428 141.91 83.7157 142.066C83.9824 142.127 84.2506 142.174 84.5158 142.246C84.9005 142.35 85.3221 142.455 85.6777 142.637C85.0293 142.307 85.6409 142.639 85.7574 142.699C85.9965 142.821 86.231 142.952 86.4579 143.096C86.5928 143.182 86.858 143.302 86.9545 143.431C86.6602 143.198 86.6296 143.177 86.8626 143.366C86.9377 143.429 87.0112 143.495 87.0833 143.561C87.2044 143.671 87.3209 143.784 87.4343 143.9C87.5247 143.993 87.6121 144.088 87.6964 144.186C87.888 144.417 87.8635 144.381 87.6244 144.082C87.7393 144.146 87.8758 144.45 87.9417 144.562C88.0076 144.672 88.0704 144.783 88.1287 144.897C88.259 145.169 88.2467 145.124 88.0904 144.762C88.1885 144.89 88.2344 145.156 88.2789 145.309C88.3264 145.474 88.4782 146.344 88.3739 145.542C89.0484 144.657 89.7244 143.773 90.3988 142.888C85.1228 144.271 79.4743 145.633 74.9372 148.793C72.8188 150.268 70.8307 152.056 69.632 154.378C68.4395 156.689 67.9045 159.39 68.1099 161.984C68.5621 167.691 72.103 172.845 76.8716 175.912C82.1231 179.288 88.9656 179.395 94.982 178.842C96.7907 178.675 98.5918 178.446 100.391 178.206C101.227 178.094 102.062 177.977 102.896 177.856C103.209 177.811 103.52 177.766 103.833 177.721C103.964 177.703 104.096 177.685 104.228 177.665C104.631 177.607 104.464 177.605 104.165 177.671C105.307 177.419 106.57 177.393 107.735 177.347C109.289 177.286 110.844 177.332 112.396 177.409C113.84 177.481 115.22 176.092 115.156 174.658C115.093 173.105 113.951 171.983 112.404 171.905Z" fill="#ED6656"/>
<path d="M134.813 84.5852C134.859 84.3742 134.938 84.1679 134.982 83.9585C134.873 84.4766 134.945 84.041 135.066 83.8316C135.106 83.7628 135.457 83.2752 135.218 83.5748C134.979 83.8759 135.376 83.4189 135.431 83.3639C135.629 83.1698 135.928 83.0139 135.542 83.2416C135.724 83.1331 135.922 83.0246 136.101 82.9099C135.813 83.0933 135.827 83.0032 136.144 82.9038C136.237 82.8748 136.924 82.7571 136.518 82.7953C136.098 82.835 136.717 82.8106 136.8 82.806C137.422 82.7708 136.325 82.6485 136.926 82.8106C137.136 82.8671 137.343 82.9252 137.551 82.9909C137.208 82.8839 137.31 82.8778 137.585 83.0276C137.744 83.1147 137.89 83.2217 138.046 83.3119C137.551 83.0246 138.023 83.3089 138.152 83.4388C138.328 83.6176 138.483 83.9998 138.27 83.5488C138.362 83.7414 138.494 83.9203 138.592 84.1129C139.242 85.4014 141.169 85.8706 142.367 85.1003C143.689 84.2504 144.052 82.7143 143.357 81.3356C141.979 78.6026 138.805 76.9808 135.785 77.3859C132.769 77.7894 130.135 80.1234 129.493 83.1224C129.193 84.5256 129.91 86.1641 131.42 86.5065C132.807 86.8214 134.492 86.0892 134.813 84.5852Z" fill="#ED6656"/>
<path d="M164.612 82.5863C163.99 79.7402 161.465 77.3618 158.582 76.8987C155.402 76.3866 152.023 77.8892 150.518 80.7995C149.857 82.0773 150.144 83.8443 151.508 84.5642C152.773 85.2306 154.577 84.9433 155.284 83.5768C155.385 83.3811 155.506 83.2038 155.613 83.0127C155.345 83.4942 155.605 83.0403 155.745 82.9027C155.866 82.7835 156.381 82.461 155.868 82.7758C156.025 82.6795 156.179 82.5787 156.341 82.4915C156.438 82.438 156.537 82.3891 156.639 82.3433C156.355 82.461 156.307 82.4869 156.498 82.4197C156.675 82.3891 156.858 82.3188 157.034 82.2745C157.664 82.114 156.533 82.2454 157.183 82.2699C157.359 82.276 157.963 82.3861 157.328 82.2363C157.537 82.2852 157.744 82.3417 157.952 82.3906C158.437 82.5038 157.733 82.2363 157.983 82.3983C158.128 82.4931 158.292 82.5802 158.446 82.6627C158.962 82.9409 158.181 82.3677 158.559 82.7529C158.708 82.9042 158.85 83.0601 158.999 83.2115C158.582 82.7865 158.962 83.1855 159.053 83.3429C159.151 83.511 159.298 84.0567 159.126 83.4438C159.183 83.6456 159.246 83.8427 159.29 84.0491C159.598 85.4568 161.32 86.4106 162.684 85.9704C164.171 85.492 164.942 84.0949 164.612 82.5863Z" fill="#ED6656"/>
<path d="M144.306 92.5032C144.587 92.4253 144.867 92.3519 145.153 92.2923C145.284 92.2648 146.253 92.1364 145.551 92.2082C146.141 92.1471 146.733 92.1135 147.326 92.1272C147.604 92.1333 147.879 92.1578 148.155 92.1761C148.48 92.2128 148.468 92.2098 148.12 92.1685C148.272 92.1929 148.424 92.222 148.574 92.2556C148.87 92.3198 149.153 92.4192 149.444 92.4941C149.739 92.6041 149.723 92.5919 149.397 92.4559C149.527 92.5139 149.654 92.5781 149.78 92.6454C149.595 91.2055 149.408 89.7641 149.222 88.3243C149.08 88.4481 148.936 88.5719 148.79 88.6911C148.637 88.8165 148.372 89.0182 148.675 88.7874C148.335 89.0473 147.987 89.2979 147.643 89.5532C146.868 90.1264 146.091 90.7011 145.364 91.3355C146.665 91.3355 147.965 91.3355 149.267 91.3355C148.119 90.0897 146.673 89.1512 145.525 87.9039C144.546 86.8416 142.602 86.8401 141.622 87.9039C140.576 89.0412 140.579 90.6614 141.622 91.7955C142.771 93.0413 144.216 93.9798 145.364 95.227C146.42 96.3734 148.181 96.1732 149.267 95.227C149.409 95.1032 149.553 94.9794 149.699 94.8602C149.852 94.7349 150.117 94.5331 149.814 94.7639C150.154 94.5041 150.502 94.2534 150.845 93.9981C151.621 93.4249 152.398 92.8502 153.125 92.2159C154.426 91.0802 154.075 88.6758 152.567 87.8948C149.608 86.3632 146.006 86.3066 142.84 87.1962C141.451 87.586 140.451 89.1604 140.913 90.5804C141.371 91.9942 142.818 92.9221 144.306 92.5032Z" fill="#ED6656"/>
<path d="M144.617 94.5459C144.644 94.9219 144.656 95.2964 144.644 95.6724C144.638 95.8451 144.623 96.0178 144.614 96.1906C144.581 96.8814 144.738 95.6051 144.607 96.2869C144.541 96.6292 144.474 96.9701 144.381 97.3079C144.325 97.5081 144.262 97.7084 144.195 97.9055C144.167 97.9835 143.951 98.5368 144.109 98.1578C144.267 97.7787 144.028 98.3182 143.99 98.3916C143.898 98.5735 143.798 98.7539 143.694 98.9296C143.606 99.0749 143.511 99.2155 143.419 99.3561C143.231 99.6419 143.199 99.6053 143.426 99.3607C143.182 99.6236 142.888 99.8697 142.659 100.14C142.461 100.376 143.093 99.8758 142.67 100.133C142.5 100.237 142.339 100.348 142.163 100.443C142.083 100.487 141.562 100.703 141.949 100.559C142.353 100.411 141.75 100.614 141.674 100.639C141.266 100.767 140.849 100.871 140.429 100.95C140.118 101.008 140.001 100.992 140.383 100.967C140.164 100.981 139.946 101.005 139.727 101.011C139.41 101.021 138.968 101.067 138.663 100.969C139.336 101.187 138.734 100.961 138.579 100.923C138.413 100.883 138.249 100.834 138.087 100.781C137.506 100.588 138.085 100.787 138.082 100.793C138.074 100.808 137.562 100.513 137.541 100.499C137.471 100.457 137.005 100.108 137.308 100.356C137.618 100.606 137.159 100.209 137.103 100.156C136.943 100.001 136.801 99.8361 136.652 99.671C136.971 100.03 136.654 99.6542 136.539 99.4769C135.752 98.2724 134.057 97.6579 132.763 98.4894C131.557 99.2659 130.931 100.964 131.773 102.254C133.103 104.293 135.073 105.863 137.513 106.315C139.889 106.756 142.406 106.407 144.587 105.374C148.508 103.515 150.435 98.6744 150.13 94.5459C150.024 93.1137 148.938 91.7242 147.371 91.7946C145.972 91.8572 144.502 93.0082 144.617 94.5459Z" fill="#ED6656"/>
<path d="M144.682 94.5458C144.397 98.5902 146.17 103.489 150.024 105.369C152.164 106.413 154.636 106.768 156.974 106.299C159.31 105.831 161.206 104.232 162.437 102.254C163.2 101.03 162.74 99.1711 161.446 98.4894C160.095 97.7771 158.485 98.1699 157.671 99.4768C157.547 99.677 157.42 99.8757 157.277 100.064C157.501 99.7672 157.384 99.9139 157.204 100.102C157.079 100.23 156.94 100.343 156.816 100.472C157.046 100.235 157.075 100.295 156.794 100.478C156.652 100.571 156.502 100.648 156.357 100.736C155.827 101.063 156.874 100.599 156.281 100.779C156.054 100.848 155.539 101.099 155.304 101.027C155.55 101.102 155.77 100.981 155.323 101.005C155.148 101.014 154.975 101.018 154.8 101.014C154.586 101.01 154.374 100.987 154.159 100.975C154.53 100.996 154.461 101.022 154.132 100.958C153.758 100.886 153.39 100.79 153.028 100.677C152.866 100.626 152.653 100.591 152.509 100.498C153.102 100.883 152.591 100.51 152.46 100.435C152.318 100.354 152.19 100.247 152.049 100.172C151.777 100.03 152.415 100.53 152.069 100.178C151.839 99.943 151.613 99.6999 151.382 99.4661C151.83 99.9216 151.433 99.5257 151.334 99.3759C151.241 99.2337 151.152 99.0885 151.068 98.9403C150.982 98.7905 150.901 98.6392 150.824 98.4863C150.81 98.4603 150.568 97.8642 150.706 98.2448C150.845 98.6285 150.646 98.0599 150.62 97.9834C150.553 97.7832 150.49 97.5799 150.435 97.3751C150.341 97.0327 150.274 96.6857 150.208 96.3357C150.079 95.6387 150.24 96.9288 150.202 96.2241C150.194 96.0835 150.18 95.9429 150.174 95.8022C150.156 95.3834 150.166 94.9661 150.196 94.5473C150.297 93.109 148.854 91.7333 147.436 91.796C145.859 91.8648 144.789 93.0051 144.682 94.5458Z" fill="#ED6656"/>
<path d="M129.845 140.648C128.418 147.239 127.5 153.952 127.122 160.685C126.935 164.03 126.885 167.38 126.969 170.728C127.05 173.929 127.191 177.157 127.665 180.327C128.094 183.205 129.137 186.299 131.353 188.315C133.533 190.297 136.614 191.305 139.529 190.65C142.698 189.94 144.623 187.13 145.06 184.058C145.489 181.051 145.431 177.953 145.432 174.922C145.434 168.508 145.063 162.102 144.917 155.692C144.885 154.254 143.671 152.873 142.158 152.941C140.691 153.006 139.364 154.15 139.399 155.692C139.52 161.01 139.791 166.323 139.885 171.642C139.931 174.248 139.923 176.856 139.851 179.462C139.831 180.154 139.81 180.845 139.781 181.537C139.768 181.816 139.756 182.094 139.736 182.372C139.725 182.533 139.709 182.691 139.696 182.85C139.636 183.601 139.777 182.533 139.687 182.951C139.62 183.262 139.571 183.57 139.485 183.878C139.433 184.066 139.167 184.683 139.403 184.203C139.269 184.478 139.123 184.753 138.936 184.998C139.264 184.568 138.796 185.155 138.643 185.21C139.125 185.039 138.907 185.032 138.729 185.111C138.671 185.137 138.432 185.31 138.393 185.291C138.35 185.27 138.941 185.137 138.613 185.194C138.491 185.215 138.366 185.267 138.248 185.304C138.087 185.354 137.858 185.527 138.143 185.346C138.338 185.224 138.338 185.337 138.127 185.345C137.843 185.354 137.52 185.304 137.242 185.34C136.882 185.388 137.733 185.469 137.382 185.36C137.254 185.322 137.116 185.308 136.986 185.276C136.755 185.22 136.532 185.14 136.304 185.071C136.137 185.021 135.909 184.839 136.395 185.116C136.277 185.048 136.146 184.996 136.027 184.932C135.786 184.804 135.568 184.633 135.329 184.503C135.875 184.798 135.268 184.446 135.104 184.287C135.029 184.214 134.584 183.731 134.759 183.934C134.972 184.183 134.662 183.795 134.618 183.731C134.551 183.633 134.485 183.534 134.422 183.431C134.233 183.129 134.063 182.815 133.91 182.493C133.875 182.419 133.689 181.958 133.809 182.277C133.921 182.574 133.786 182.198 133.773 182.161C133.671 181.857 133.566 181.556 133.479 181.247C133.301 180.623 133.166 179.988 133.059 179.349C133.032 179.188 133.009 179.026 132.982 178.866C132.999 178.974 133.047 179.41 132.984 178.869C132.952 178.584 132.92 178.302 132.892 178.017C132.825 177.311 132.772 176.603 132.725 175.896C132.622 174.372 132.547 172.848 132.5 171.321C132.408 168.268 132.428 165.213 132.562 162.164C132.714 158.72 133.01 155.282 133.45 151.861C133.468 151.715 133.488 151.568 133.507 151.421C133.533 151.226 133.533 151.226 133.507 151.421C133.52 151.323 133.534 151.226 133.548 151.129C133.611 150.691 133.674 150.252 133.741 149.813C133.867 148.985 134 148.159 134.143 147.334C134.445 145.587 134.787 143.846 135.162 142.114C135.466 140.711 134.744 139.072 133.235 138.73C131.85 138.41 130.171 139.144 129.845 140.648Z" fill="#ED6656"/>
<path d="M158.061 142.111C158.743 145.142 159.313 148.198 159.761 151.273C159.81 151.614 159.859 151.957 159.905 152.299C159.888 152.172 159.849 151.871 159.923 152.447C159.948 152.643 159.972 152.839 159.997 153.034C160.093 153.817 160.182 154.599 160.263 155.383C160.421 156.903 160.548 158.425 160.647 159.949C161.036 165.987 161.036 172.115 160.414 178.138C160.397 178.3 160.378 178.462 160.36 178.625C160.355 178.666 160.305 179.071 160.348 178.745C160.394 178.392 160.323 178.904 160.309 178.987C160.283 179.149 160.257 179.309 160.228 179.47C160.113 180.109 159.967 180.741 159.779 181.364C159.696 181.633 159.604 181.897 159.508 182.163C159.328 182.66 159.463 182.27 159.509 182.171C159.44 182.314 159.374 182.46 159.301 182.602C159.155 182.886 158.996 183.164 158.821 183.433C158.755 183.534 158.68 183.63 158.617 183.733C158.465 183.98 158.864 183.487 158.522 183.846C158.34 184.037 158.154 184.219 157.966 184.404C157.921 184.447 157.659 184.677 157.936 184.44C158.225 184.194 157.894 184.468 157.811 184.52C157.612 184.645 157.412 184.772 157.204 184.884C157.159 184.908 156.917 185.064 156.841 185.064C157.159 184.937 157.222 184.91 157.032 184.985C156.969 185.009 156.906 185.034 156.842 185.055C156.583 185.138 156.33 185.22 156.065 185.281C155.967 185.304 155.867 185.321 155.769 185.344C155.213 185.471 155.907 185.333 155.91 185.33C155.832 185.414 155.236 185.361 155.124 185.358C155.066 185.356 154.751 185.358 154.736 185.333C154.748 185.353 155.34 185.465 154.9 185.345C154.78 185.313 154.221 185.246 154.172 185.134C154.16 185.107 154.788 185.478 154.316 185.179C154.212 185.113 154.097 185.047 153.991 184.986C153.884 184.925 153.761 184.743 153.965 184.975C154.219 185.267 153.951 184.946 153.884 184.872C153.822 184.803 153.539 184.451 153.729 184.716C153.933 184.997 153.556 184.404 153.559 184.408C153.496 184.308 153.352 183.933 153.543 184.433C153.502 184.323 153.462 184.213 153.427 184.103C153.329 183.803 153.252 183.497 153.191 183.187C153.168 183.069 153.151 182.952 153.128 182.834C153.237 183.369 153.145 182.979 153.134 182.851C153.104 182.492 153.074 182.134 153.056 181.775C152.921 179.085 152.89 176.387 152.91 173.694C152.953 167.691 153.3 161.695 153.442 155.694C153.476 154.254 152.149 152.877 150.683 152.942C149.16 153.011 147.961 154.151 147.924 155.694C147.788 161.452 147.464 167.205 147.4 172.966C147.366 175.901 147.392 178.843 147.539 181.775C147.697 184.913 148.514 188.32 151.532 189.929C154.187 191.345 157.394 191.019 159.989 189.636C162.682 188.201 164.35 185.452 165.167 182.596C166.013 179.639 166.117 176.442 166.267 173.389C166.431 170.045 166.453 166.693 166.333 163.345C166.06 155.717 165.058 148.099 163.381 140.652C163.064 139.245 161.358 138.287 159.987 138.73C158.51 139.204 157.722 140.606 158.061 142.111Z" fill="#ED6656"/>
<path d="M188.495 60.3033C188.559 60.7079 188.515 60.4088 188.516 60.2955C188.517 60.2268 188.563 59.9528 188.514 60.1958C188.45 60.5017 188.779 59.5956 188.532 60.0777C188.573 59.9973 188.611 59.916 188.655 59.8376C188.659 59.8308 188.889 59.4465 188.746 59.673C188.626 59.8628 188.786 59.6285 188.826 59.583C188.92 59.4804 189.03 59.3932 189.124 59.2926C189.294 59.1125 188.791 59.4765 189.157 59.2703C189.238 59.2248 189.313 59.1715 189.395 59.126C189.477 59.0805 189.559 59.0418 189.643 59.0011C189.316 59.1609 189.527 59.0457 189.613 59.0283C189.73 59.0041 189.866 58.974 189.98 58.9353C190.235 58.8482 189.605 58.9324 190.068 58.9218C190.337 58.916 190.597 58.9111 190.865 58.9363C190.515 58.9034 191.073 58.9857 191.192 59.0147C191.43 59.0747 191.654 59.1619 191.889 59.2354C192.171 59.3245 191.55 59.0544 191.997 59.2838C192.094 59.3332 192.192 59.3787 192.288 59.43C192.522 59.5539 192.751 59.6895 192.972 59.8357C193.054 59.8899 193.133 59.948 193.214 60.0012C193.603 60.2558 193.054 59.855 193.27 60.038C193.438 60.1803 193.607 60.3188 193.768 60.4688C193.911 60.6015 194.05 60.7399 194.184 60.8812C194.268 60.9703 194.35 61.0603 194.43 61.1523C194.463 61.1901 194.753 61.5405 194.619 61.3721C194.483 61.2017 194.672 61.4466 194.702 61.4883C194.773 61.587 194.843 61.6877 194.91 61.7893C195.018 61.952 195.121 62.1185 195.218 62.2879C195.328 62.4786 195.43 62.6723 195.526 62.8698C195.58 62.9792 195.63 63.0895 195.68 63.2018C195.556 62.9211 195.675 63.2018 195.721 63.3277C195.862 63.7159 195.976 64.1138 196.063 64.5175C196.087 64.6298 196.168 65.263 196.131 64.8438C196.152 65.0858 196.176 65.3259 196.183 65.5689C196.189 65.7635 196.187 65.9581 196.179 66.1517C196.173 66.2737 196.166 66.3966 196.154 66.5186C196.145 66.6164 196.081 66.9446 196.15 66.5806C196.112 66.78 196.075 66.9785 196.024 67.175C195.999 67.2728 195.97 67.3696 195.939 67.4664C195.903 67.5787 195.781 67.8972 195.902 67.6145C195.802 67.8469 195.668 68.0512 195.548 68.2719C195.515 68.3319 195.35 68.5333 195.557 68.2796C195.494 68.3561 195.428 68.4316 195.36 68.5033C195.29 68.5759 195.215 68.6407 195.144 68.7114C194.853 68.9999 195.324 68.6398 195.105 68.7347C195.025 68.7695 194.931 68.8247 194.862 68.876C194.748 68.9321 194.78 68.9234 194.958 68.8489C194.892 68.875 194.826 68.8992 194.758 68.9196C194.645 68.9564 194.53 68.9796 194.416 69.0106C194.079 69.1035 194.699 69.0454 194.326 69.0144C194.241 69.0077 194.132 69.0067 194.049 69.0086C194.113 69.0183 194.177 69.028 194.241 69.0377C194.15 69.0222 194.062 69.0019 193.973 68.9767C193.862 68.9583 193.724 68.8382 194.008 69.0067C193.901 68.9428 193.628 68.7192 193.917 68.9941C193.896 68.9738 193.744 68.845 193.752 68.8363C193.725 68.8692 193.987 69.1403 193.756 68.8208C193.551 68.5372 193.831 68.9244 193.785 68.9254C193.756 68.9263 193.7 68.6427 193.687 68.5943C193.591 68.2709 193.732 68.7075 193.7 68.7163C193.678 68.723 193.719 68.3832 193.702 68.3745C193.76 68.4045 193.617 68.7985 193.707 68.451C193.807 68.0666 193.639 68.6059 193.695 68.4587C193.704 68.4432 193.713 68.4268 193.722 68.4113C193.803 68.2893 193.8 68.2883 193.712 68.4103C193.618 68.5275 193.62 68.5313 193.721 68.4219C193.507 68.572 193.479 68.5952 193.636 68.4907C194.403 67.995 194.793 66.9233 194.264 66.1062C193.77 65.3433 192.691 64.9503 191.87 65.4808C190.549 66.3347 190.033 67.7791 190.274 69.2923C190.502 70.7174 191.553 71.8481 192.914 72.2935C194.27 72.7369 195.891 72.4377 197.046 71.6206C198.279 70.7483 199.089 69.4075 199.434 67.9495C200.049 65.353 199.485 62.5319 198.09 60.2733C196.69 58.0069 194.34 56.0164 191.65 55.5498C189.861 55.24 188.101 55.5779 186.704 56.7764C185.391 57.9101 184.854 59.5501 185.122 61.2298C185.266 62.133 186.444 62.7139 187.273 62.4467C188.258 62.1292 188.65 61.2704 188.495 60.3033Z" fill="#BFCF59" stroke="#BFCF59"/>
<path d="M209.079 70.6972C209.099 70.7388 209.202 71.0718 209.134 70.792C209.167 70.9276 209.152 71.0321 209.155 71.1648C209.148 71.2064 209.141 71.248 209.134 71.2896C209.176 71.1493 209.168 71.1493 209.112 71.2906C208.929 71.3632 209.136 71.4397 209.116 71.2974C209.136 71.2654 209.156 71.2335 209.176 71.2006C209.133 71.2567 209.089 71.3139 209.045 71.37C209.041 71.3603 209.158 71.25 209.169 71.2432C209.362 71.1251 208.882 71.3584 209.1 71.2906C209.167 71.2703 209.301 71.1222 209.368 71.1386C209.349 71.1338 209.07 71.2877 209.237 71.2035C209.288 71.1783 209.565 71.0863 209.305 71.1706C209.105 71.2345 209.231 71.1832 209.314 71.1793C209.595 71.1667 209.212 71.2296 209.21 71.157C209.21 71.159 209.404 71.2132 209.417 71.2151C209.651 71.2538 209.195 71.0718 209.39 71.2015C209.447 71.2393 209.515 71.2674 209.575 71.3032C209.618 71.3293 209.918 71.5646 209.743 71.4116C209.585 71.2732 209.764 71.4387 209.784 71.4591C209.852 71.5268 209.923 71.5917 209.99 71.6614C210.058 71.7311 210.12 71.8057 210.186 71.8773C210.203 71.8957 210.365 72.0816 210.236 71.9286C210.107 71.7776 210.263 71.9644 210.279 71.9867C210.338 72.0671 210.395 72.1474 210.451 72.2287C210.563 72.3904 210.67 72.555 210.776 72.7196C211.226 73.4234 211.667 74.1369 212.047 74.8814C212.136 75.0556 212.213 75.2377 212.304 75.4109C212.395 75.5881 212.308 75.4129 212.294 75.378C212.337 75.4807 212.376 75.5842 212.414 75.6878C212.557 76.0751 212.674 76.471 212.754 76.8767C212.763 76.9241 212.812 77.262 212.788 77.051C212.764 76.8564 212.791 77.1284 212.792 77.1468C212.801 77.3346 212.812 77.5215 212.807 77.7102C212.804 77.7983 212.794 77.8855 212.79 77.9736C212.783 78.1837 212.808 77.8371 212.809 77.839C212.846 77.962 212.723 78.2311 212.685 78.3589C212.649 78.477 212.417 78.9223 212.619 78.569C212.553 78.6851 212.5 78.8091 212.433 78.9252C212.343 79.0792 212.244 79.2254 212.139 79.3696C212.358 79.0705 212.088 79.4045 211.98 79.509C211.934 79.5535 211.88 79.5932 211.837 79.6397C211.68 79.8091 212.096 79.5061 211.889 79.6049C211.761 79.6659 211.631 79.7598 211.512 79.8353C211.307 79.9621 211.539 79.8827 211.586 79.812C211.571 79.8353 211.437 79.8643 211.409 79.8701C211.349 79.8827 211.285 79.9011 211.228 79.9176C210.891 80.0173 211.437 79.9437 211.256 79.9156C211.183 79.904 211.071 79.903 210.999 79.9176C210.829 79.9514 211.339 80.026 211.046 79.9253C211.002 79.9108 210.929 79.8798 210.884 79.8769C210.748 79.8682 211.182 80.0657 210.941 79.8876C210.902 79.8585 210.841 79.813 210.796 79.7956C210.638 79.7317 211.024 80.0386 210.839 79.814C210.808 79.7762 210.759 79.7191 210.72 79.6891C210.572 79.5787 210.89 79.9873 210.749 79.7249C210.714 79.661 210.672 79.5913 210.634 79.5303C210.486 79.2922 210.708 79.6184 210.677 79.6426C210.674 79.6446 210.624 79.4596 210.616 79.4354C210.53 79.1828 210.673 79.5439 210.631 79.5865C210.62 79.5971 210.641 79.3948 210.632 79.3812C210.621 79.4693 210.61 79.5565 210.599 79.6446C210.64 79.509 210.631 79.5139 210.573 79.661C210.417 79.8779 210.538 79.7278 210.57 79.6852C210.288 80.0647 210.477 79.8004 210.573 79.7114C211.244 79.0889 211.252 77.868 210.573 77.2465C209.854 76.5892 208.816 76.5824 208.098 77.2465C206.252 78.9582 207.306 82.0029 209.375 83.001C211.684 84.1134 214.254 82.7484 215.453 80.6843C216.739 78.4702 216.366 75.9657 215.359 73.7284C214.885 72.675 214.274 71.6769 213.637 70.7136C213.004 69.7561 212.253 68.7793 211.218 68.2236C209.938 67.5372 208.387 67.5014 207.186 68.3872C205.853 69.3708 205.291 70.9189 206.058 72.4553C206.466 73.2733 207.694 73.5667 208.451 73.0807C209.292 72.5414 209.515 71.5714 209.079 70.6972Z" fill="#BFCF59" stroke="#BFCF59"/>
<path d="M205.846 56.8493C206.13 56.2268 206.437 55.612 206.825 55.0467C206.877 54.9721 206.929 54.8976 206.984 54.825C206.847 54.9992 206.84 55.0118 206.961 54.8627C207.082 54.7359 207.194 54.6033 207.324 54.4842C207.387 54.4261 207.451 54.3699 207.517 54.3157C207.346 54.4445 207.313 54.4735 207.418 54.4009C207.533 54.367 207.673 54.1773 207.797 54.185C207.569 54.277 207.545 54.2906 207.727 54.2257C207.808 54.2015 207.889 54.1802 207.972 54.1637C207.717 54.1908 207.691 54.1957 207.892 54.1792C208.001 54.1744 208.109 54.1773 208.217 54.186C207.849 54.156 208.33 54.2383 208.384 54.2518C208.576 54.3225 208.589 54.3225 208.423 54.2538C208.523 54.3002 208.621 54.3496 208.717 54.4019C208.911 54.5074 209.097 54.6255 209.28 54.7494C209.366 54.8085 209.451 54.8685 209.535 54.9305C209.399 54.823 209.379 54.8085 209.476 54.886C209.764 55.128 210.048 55.371 210.309 55.643C210.448 55.7873 210.578 55.9383 210.709 56.0893C210.968 56.3904 210.605 55.9025 210.795 56.2113C211.003 56.5473 211.218 56.8716 211.374 57.2366C211.21 56.8541 211.426 57.4341 211.447 57.5086C211.487 57.6499 211.514 57.7942 211.548 57.9375C211.583 58.1447 211.582 58.1311 211.546 57.8958C211.554 57.983 211.559 58.0701 211.562 58.1572C211.566 58.2966 211.601 58.5551 211.541 58.6829C211.577 58.438 211.578 58.4138 211.545 58.6113C211.537 58.6539 211.527 58.6975 211.518 58.74C211.478 58.9124 211.421 59.0779 211.368 59.2464C211.298 59.4284 211.306 59.411 211.394 59.1951C211.357 59.2745 211.317 59.3519 211.275 59.4284C211.191 59.5813 211.091 59.7217 210.996 59.8679C211.221 59.5242 211.009 59.836 210.938 59.9095C210.854 59.9957 210.431 60.289 210.809 60.0519C210.715 60.1109 210.484 60.3191 210.37 60.3094C210.594 60.2213 210.614 60.2106 210.432 60.2774C210.349 60.3045 210.265 60.3278 210.181 60.3481C210.84 60.6153 211.498 60.8815 212.157 61.1487C212.229 61.3201 212.183 61.2039 212.15 61.0965C212.117 60.99 212.08 60.8844 212.05 60.776C212.02 60.6685 211.992 60.5601 211.968 60.4507C211.959 60.411 211.882 59.9773 211.913 60.1874C211.939 60.3675 211.901 60.0354 211.899 60.0025C211.891 59.8911 211.886 59.7798 211.885 59.6675C211.883 59.4158 211.897 59.166 211.922 58.9153C212.013 58.0052 211.054 57.133 210.173 57.1727C209.148 57.2182 208.521 57.9404 208.424 58.9153C208.285 60.3094 208.595 61.6309 209.136 62.9068C209.435 63.6126 210.433 63.8817 211.112 63.7075C212.806 63.2728 213.999 61.9852 214.646 60.4159C215.304 58.8204 215.106 57.0904 214.427 55.5433C213.763 54.033 212.564 52.8335 211.242 51.877C209.667 50.7356 207.706 50.2932 205.92 51.2284C204.426 52.0116 203.5 53.608 202.825 55.0864C202.448 55.9141 202.559 57.0003 203.453 57.4708C204.22 57.8784 205.442 57.7361 205.846 56.8493Z" fill="#BFCF59" stroke="#BFCF59"/>
<path d="M28 9.19231C28 17.158 22.0231 26 14.1333 26C6.24355 26 0 23.4656 0 15.5C0 7.53435 4.71974 0 12.6095 0C20.4993 0 28 1.22666 28 9.19231Z" fill="#FEEFED"/>
<path d="M291 213.667C291 223.777 283.529 235 273.667 235C263.804 235 256 231.783 256 221.673C256 211.563 261.9 202 271.762 202C281.624 202 291 203.557 291 213.667Z" fill="#FEEFED"/>
</svg>
