<?xml version="1.0" encoding="utf-8"?>
<svg width="289" height="246" viewBox="0 0 289 246" fill="none" xmlns="http://www.w3.org/2000/svg">
  <path d="M266.815 86.7603C266.815 161.943 209.861 245.397 134.678 245.397C59.4955 245.397 0 221.477 0 146.295C0 71.1119 44.9749 0 120.158 0C195.34 0 266.815 11.5777 266.815 86.7603Z" fill="#FAFEE6"/>
  <path d="M289 29.1923C289 37.158 283.023 46 275.133 46C267.244 46 261 43.4656 261 35.5C261 27.5344 265.72 20 273.61 20C281.499 20 289 21.2267 289 29.1923Z" fill="#F4F9D8"/>
  <path d="M18 218.01C18 223.219 14.1577 229 9.08571 229C4.01371 229 0 227.343 0 222.135C0 216.926 3.03412 212 8.10612 212C13.1781 212 18 212.802 18 218.01Z" fill="#F4F9D8"/>
  <path d="M189.921 74.0185C195.348 71.8599 200.775 69.7013 206.202 67.5427C206.907 67.262 207.475 66.5398 207.216 65.7256C206.994 65.0288 206.187 64.3927 205.429 64.6939C200.002 66.8525 194.575 69.0111 189.148 71.1697C188.443 71.4504 187.875 72.1726 188.134 72.9868C188.356 73.6828 189.163 74.3197 189.921 74.0185Z" fill="#ED6656" stroke="#ED6656" stroke-width="2"/>
  <path d="M190.555 84.3248C196.493 84.3248 202.431 84.3248 208.369 84.3248C209.129 84.3248 209.857 83.6452 209.821 82.8475C209.786 82.0472 209.183 81.3701 208.369 81.3701C202.431 81.3701 196.493 81.3701 190.555 81.3701C189.795 81.3701 189.067 82.0497 189.103 82.8475C189.138 83.6477 189.741 84.3248 190.555 84.3248Z" fill="#ED6656" stroke="#ED6656" stroke-width="2"/>
  <path d="M187.29 91.8603C192.519 94.3743 198.041 96.2111 203.733 97.2584C204.478 97.3955 205.335 97.0524 205.52 96.2267C205.681 95.5045 205.305 94.5565 204.506 94.4096C201.749 93.9023 199.026 93.217 196.358 92.3503C195.024 91.9169 193.704 91.4393 192.402 90.9181C192.076 90.7876 191.751 90.6546 191.428 90.5192C191.036 90.355 191.061 90.3657 190.669 90.1925C190.027 89.9086 189.39 89.6139 188.757 89.3094C188.071 88.9795 187.157 89.0919 186.769 89.8396C186.429 90.4954 186.558 91.5074 187.29 91.8603Z" fill="#ED6656" stroke="#ED6656" stroke-width="2"/>
  <g clip-path="url(#clip0_462_3255)" transform="matrix(1, 0, 0, 1, -0.356522, 0)">
    <path d="M107.815 79.5315C123.741 79.0122 139.689 79.2007 155.597 80.1098C157.597 80.2235 159.598 80.3501 161.596 80.4867C162.023 80.5155 162.463 80.5227 162.889 80.5831C162.323 80.5011 162.805 80.6076 162.948 80.6378C163.251 80.7011 162.666 80.4997 162.608 80.4522C162.394 80.2724 162.403 80.0681 162.28 79.8638C162.273 79.8149 162.267 79.7675 162.26 79.7186C162.247 80.0149 162.263 79.9933 162.308 79.6553C162.243 80.0883 162.084 80.504 161.927 80.9096C161.742 81.3872 161.86 81.0693 161.905 80.9686C161.805 81.1916 161.703 81.4146 161.596 81.6332C161.419 81.9986 161.23 82.3597 161.03 82.715C160.593 83.4975 160.108 84.2542 159.589 84.985C159.494 85.1187 159.398 85.2511 159.302 85.3834C159.286 85.4064 158.797 86.0509 159.113 85.6424C158.86 85.9675 158.6 86.2854 158.336 86.6004C157.753 87.2952 157.147 87.9699 156.527 88.6316C154.271 91.0354 151.878 93.3442 149.31 95.4171C149.122 95.5681 148.935 95.7177 148.745 95.8659C148.347 96.1781 148.616 95.9652 148.701 95.9004C148.382 96.1407 148.061 96.378 147.737 96.6096C147.025 97.1174 146.298 97.6022 145.553 98.0582C144.881 98.4696 144.193 98.858 143.49 99.2176C143.139 99.3975 142.786 99.5686 142.429 99.7326C142.216 99.8319 141.999 99.9283 141.783 100.02C142.203 99.842 141.656 100.066 141.53 100.115C140.647 100.455 139.745 100.745 138.829 100.978C138.378 101.092 137.924 101.193 137.468 101.279C137.246 101.321 137.023 101.357 136.801 101.396C136.482 101.442 136.445 101.449 136.69 101.416C136.556 101.433 136.423 101.447 136.289 101.462C134.188 101.688 132.063 101.64 129.965 101.411C129.785 101.391 129.606 101.371 129.425 101.35C129.105 101.309 129.066 101.305 129.307 101.335C129.127 101.309 128.948 101.282 128.767 101.255C128.272 101.177 127.779 101.092 127.287 101C126.252 100.806 125.223 100.58 124.2 100.332C122.064 99.8175 119.952 99.209 117.843 98.5962C116.54 98.2164 114.956 99.0551 114.648 100.404C114.332 101.791 115.067 103.184 116.462 103.589C124.331 105.879 132.76 108.123 140.898 105.787C147.969 103.758 153.763 98.8436 158.831 93.7182C161.505 91.0138 164.113 88.085 165.866 84.6872C166.777 82.9221 167.889 80.6766 167.314 78.6339C166.999 77.5162 166.276 76.5797 165.25 76.0201C164.139 75.4131 162.831 75.3944 161.599 75.3095C153.222 74.7355 144.832 74.3601 136.437 74.1846C126.899 73.9846 117.354 74.0436 107.817 74.3543C106.46 74.3989 105.154 75.5138 105.219 76.9437C105.278 78.3074 106.359 79.579 107.815 79.5315Z" fill="#B1C824"/>
    <path d="M109.31 78.0813C110.336 72.9732 110.44 67.6823 110.317 62.4907C110.274 60.6595 108.095 59.09 106.409 60.2552C103.457 62.2951 100.428 64.2299 97.3162 66.0179C96.6596 66.3948 95.9987 66.7617 95.3219 67.1011C94.9467 67.2896 94.5657 67.4694 94.1804 67.6377C94.5599 67.4723 94.1703 67.6406 94.1039 67.665C93.8687 67.7514 93.6349 67.842 93.3982 67.9225C93.0043 68.0563 92.6045 68.1728 92.2005 68.2707C92.0389 68.3095 91.8758 68.3455 91.7127 68.3771C91.7488 68.3699 90.9464 68.4951 91.3173 68.4505C91.6911 68.4044 90.8728 68.4807 90.9133 68.4778C90.7776 68.485 90.6405 68.4908 90.5034 68.4922C90.1066 68.4965 89.6736 68.5008 89.284 68.4246C89.8656 68.5368 89.2032 68.3929 88.9766 68.3397C88.6476 68.2635 88.3229 68.17 88.004 68.0592C87.8756 68.0146 87.7515 67.9657 87.6245 67.9197C88.1685 68.1139 87.7341 67.9671 87.5942 67.901C87.2579 67.7427 86.9303 67.5672 86.6129 67.3759C86.3242 67.2004 86.0472 67.0105 85.7744 66.812C86.2218 67.1357 85.6749 66.7171 85.519 66.579C85.2693 66.3546 85.0312 66.1186 84.8047 65.8727C84.7138 65.7748 84.6301 65.6698 84.5391 65.572C84.1423 65.1476 84.7527 65.9086 84.4526 65.4684C84.0774 64.9175 83.744 64.3636 83.4626 63.758C83.7007 64.2716 83.4438 63.6746 83.3746 63.4588C83.2865 63.1841 83.034 62.5943 83.0961 62.3138C83.086 62.3612 83.1495 62.9309 83.1119 62.4159C83.1018 62.2821 83.0903 62.1498 83.0845 62.016C83.0701 61.6751 83.086 61.3384 83.1062 60.999C83.135 60.5156 83.1047 60.9889 83.0874 61.0795C83.1249 60.8781 83.1596 60.6767 83.2072 60.4768C83.2865 60.143 83.3919 59.8208 83.5045 59.4972C83.6632 59.0455 83.5189 59.4684 83.4785 59.5504C83.5708 59.3677 83.656 59.1836 83.757 59.0052C83.8898 58.7678 84.0427 58.5449 84.1928 58.3176C83.8566 58.8311 84.2087 58.3017 84.2938 58.2082C84.3847 58.1075 84.4771 58.0097 84.5738 57.9148C84.6705 57.8198 84.7744 57.7335 84.8711 57.6386C85.2232 57.2905 84.5305 57.8457 85.076 57.4919C85.3343 57.3236 85.6056 57.1682 85.8884 57.0445C85.5406 57.1955 85.9476 57.0344 86.0024 57.02C86.2579 56.951 86.5061 56.8675 86.7629 56.8057C87.5624 56.6129 88.3806 56.5094 89.1945 56.3971C89.3316 56.3784 89.4687 56.3597 89.6058 56.341C89.6202 56.3396 90.3057 56.2475 89.8901 56.3022C89.4702 56.3583 90.1758 56.2648 90.1859 56.2634C90.3302 56.2447 90.476 56.226 90.6203 56.2073C91.3664 56.1109 92.1139 56.0188 92.8614 55.9311C94.394 55.7513 95.9294 55.593 97.4663 55.4636C100.527 55.2046 103.605 55.0507 106.678 55.1471C107.39 55.1687 108.102 55.2061 108.812 55.2607C109.137 55.2852 109.463 55.3154 109.787 55.3485C109.929 55.3629 110.07 55.3787 110.212 55.3945C110.352 55.4103 110.492 55.4276 110.63 55.4463C110.318 55.4046 110.261 55.3974 110.454 55.4247C111.147 55.5398 111.832 55.6448 112.506 55.8476C112.425 55.8232 112.033 55.6549 112.508 55.852C113.079 56.0907 112.365 55.6693 112.606 55.9095C112.909 56.213 112.161 55.5225 112.658 55.9929C112.691 56.0577 112.725 56.121 112.759 56.1857C112.645 55.9009 112.639 55.8994 112.74 56.1799C112.941 56.9654 113.125 57.7364 113.252 58.5391C113.236 58.4413 113.192 58.0097 113.248 58.5175C113.272 58.7434 113.297 58.9692 113.317 59.1951C113.355 59.6165 113.381 60.0395 113.397 60.4624C113.464 62.1785 113.378 63.9004 113.189 65.6065C113.166 65.8094 113.14 66.0107 113.117 66.2136C113.092 66.402 113.096 66.3747 113.13 66.1316C113.112 66.2524 113.095 66.3733 113.078 66.4941C113.011 66.9372 112.939 67.3788 112.861 67.8204C112.705 68.6936 112.525 69.5624 112.323 70.427C111.939 72.0626 111.471 73.678 110.926 75.2676C110.486 76.5508 111.43 78.1547 112.74 78.4525C114.183 78.7805 115.464 78.018 115.935 76.6443C117.085 73.294 117.848 69.8458 118.297 66.3359C118.74 62.8633 118.775 59.3044 118.027 55.8692C117.596 53.8869 116.661 52.0615 114.723 51.194C112.998 50.423 111.005 50.2705 109.141 50.1108C105.825 49.8274 102.478 49.9267 99.1605 50.1569C95.7115 50.3957 92.2799 50.8056 88.854 51.2645C86.9332 51.522 85.0413 51.7392 83.2663 52.575C81.6991 53.313 80.4033 54.5889 79.4826 56.0433C77.5431 59.1044 77.4709 62.9309 78.8996 66.192C80.2532 69.2819 82.9561 71.5979 86.0558 72.8394C90.0474 74.4376 94.2352 73.4292 97.9425 71.5721C101.81 69.6344 105.478 67.1817 109.031 64.7262C107.728 63.981 106.425 63.2359 105.123 62.4907C105.181 64.9434 105.172 67.3989 105.054 69.8487C104.995 71.0786 104.908 72.3071 104.781 73.5313C104.748 73.8478 104.709 74.1643 104.675 74.4807C104.634 74.79 104.636 74.7929 104.676 74.4908C104.654 74.6433 104.633 74.7958 104.61 74.9482C104.522 75.5352 104.418 76.1206 104.301 76.7032C104.035 78.0281 104.68 79.563 106.115 79.8881C107.406 80.183 109.024 79.5012 109.31 78.0813Z" fill="#B1C824"/>
    <path d="M140.262 76.1357C140.151 75.5531 140.056 74.9676 139.969 74.3807C140.06 74.9978 139.925 74.0196 139.913 73.9132C139.876 73.5967 139.842 73.2802 139.811 72.9637C139.689 71.7396 139.609 70.5111 139.552 69.2811C139.441 66.8299 139.431 64.3758 139.486 61.9231C138.183 62.6683 136.88 63.4134 135.578 64.1586C138.655 66.3984 141.822 68.559 145.124 70.4593C148.413 72.3524 152.091 73.6715 155.908 72.7954C162.418 71.3023 167.049 63.9946 164.766 57.5544C163.525 54.0559 160.836 51.6895 157.149 51.0408C153.871 50.4639 150.533 50.0856 147.219 49.7734C143.903 49.4613 140.558 49.2714 137.228 49.4282C135.569 49.5059 133.907 49.6785 132.273 49.9763C130.288 50.3388 128.5 51.2983 127.641 53.2057C126.824 55.0226 126.602 57.1171 126.471 59.0864C126.344 60.9881 126.413 62.9028 126.602 64.7987C126.984 68.6295 127.765 72.4171 128.959 76.0781C129.377 77.3642 130.777 78.3309 132.154 77.8863C133.444 77.4706 134.418 76.081 133.968 74.7015C133.048 71.8805 132.372 68.9848 131.941 66.0502C131.865 65.5324 131.923 65.9035 131.936 66.0114C131.91 65.81 131.885 65.6072 131.862 65.4043C131.82 65.0404 131.784 64.6765 131.751 64.3125C131.68 63.5113 131.633 62.7071 131.612 61.903C131.595 61.1952 131.598 60.4861 131.628 59.7797C131.643 59.4345 131.663 59.0878 131.69 58.744C131.705 58.5556 131.722 58.3657 131.741 58.1772C131.754 58.0449 131.84 57.3717 131.755 57.9744C131.846 57.3256 131.962 56.6754 132.123 56.041C132.171 55.854 132.439 55.1405 132.211 55.6224C132.21 55.6239 132.546 55.0068 132.338 55.3347C132.214 55.4786 132.237 55.4556 132.41 55.2686C132.19 55.4182 132.157 55.4441 132.312 55.3448C132.448 55.2829 132.874 55.1146 132.374 55.2829C132.513 55.2369 132.651 55.1923 132.794 55.1549C133.11 55.07 133.432 55.0111 133.754 54.9535C134.057 54.9003 134.362 54.8528 134.666 54.8082C134.064 54.896 134.555 54.8255 134.706 54.8068C134.92 54.7823 135.134 54.7593 135.347 54.7392C138.248 54.4616 141.177 54.522 144.082 54.7047C145.606 54.7996 147.129 54.9348 148.648 55.0959C149.348 55.1707 150.048 55.2499 150.748 55.3347C151.088 55.3765 151.43 55.4182 151.771 55.4628C151.957 55.4872 152.143 55.5117 152.331 55.5347C152.907 55.6095 151.899 55.4743 152.52 55.5606C153.928 55.7548 155.376 55.89 156.757 56.241C157.08 56.323 157.406 56.4122 157.715 56.5416C157.334 56.382 157.731 56.5661 157.822 56.6165C157.968 56.6956 158.103 56.7905 158.246 56.8711C158.363 56.9372 158.604 57.1717 158.197 56.8164C158.297 56.9027 158.399 56.9847 158.496 57.0739C158.617 57.1861 158.732 57.3026 158.845 57.422C158.901 57.481 159.292 57.9888 159.087 57.6925C158.856 57.3573 159.219 57.9054 159.229 57.9197C159.301 58.032 159.37 58.147 159.435 58.2636C159.529 58.4304 159.894 59.3453 159.688 58.7411C159.776 58.9986 159.87 59.2518 159.942 59.5151C159.986 59.6791 160.027 59.8445 160.061 60.0114C160.079 60.0933 160.17 60.7594 160.134 60.3724C160.095 59.9437 160.145 60.6141 160.147 60.6371C160.154 60.7723 160.158 60.909 160.16 61.0442C160.162 61.3506 160.132 61.6513 160.116 61.9562C160.096 62.359 160.261 61.3391 160.109 61.9677C160.077 62.0986 160.057 62.231 160.025 62.3619C159.949 62.6884 159.854 63.0092 159.74 63.3243C159.731 63.3487 159.47 63.9399 159.647 63.5746C159.828 63.2034 159.532 63.7932 159.523 63.8105C159.402 64.0493 159.269 64.2823 159.128 64.5096C159.051 64.6333 158.432 65.4604 158.838 64.9699C158.624 65.2288 158.406 65.4835 158.171 65.7237C157.936 65.9654 157.682 66.1811 157.435 66.4084C157.346 66.4904 157.047 66.6976 157.488 66.3782C157.38 66.4559 157.273 66.5365 157.162 66.6127C156.888 66.8011 156.604 66.9781 156.311 67.1378C156.128 67.2385 155.252 67.6024 155.851 67.3881C155.539 67.5003 155.23 67.6168 154.911 67.7045C154.752 67.7491 154.592 67.788 154.431 67.8225C154.351 67.8398 153.689 67.9491 154.093 67.8944C154.527 67.8354 153.879 67.9059 153.846 67.9088C153.647 67.9217 153.448 67.9261 153.249 67.9232C153.116 67.9217 152.982 67.916 152.849 67.9088C152.732 67.9016 152.08 67.8067 152.534 67.8858C151.624 67.7276 150.725 67.4643 149.873 67.1047C149.98 67.1493 150.257 67.2816 149.792 67.0601C149.562 66.9493 149.329 66.8414 149.101 66.7249C148.719 66.5307 148.342 66.3264 147.968 66.1164C144.58 64.2003 141.343 61.9749 138.199 59.6877C136.532 58.475 134.331 60.1279 134.291 61.9231C134.174 67.1176 134.275 72.3955 135.252 77.5138C135.506 78.8473 137.187 79.7291 138.447 79.322C139.876 78.8602 140.535 77.5641 140.262 76.1357Z" fill="#B1C824"/>
    <path d="M104.299 76.705C101.334 84.4572 98.5889 92.2914 96.0101 100.18C93.287 108.511 90.7515 116.903 88.4007 125.346C86.112 133.562 83.9964 141.83 82.1103 150.147C80.3959 157.705 78.8605 165.31 77.657 172.966C76.6511 179.37 75.817 185.831 75.5688 192.311C75.5429 192.98 75.5255 193.651 75.514 194.321C75.4909 195.676 76.7247 196.972 78.1115 196.91C79.5388 196.847 80.6846 195.772 80.7091 194.321C80.7553 191.487 80.94 188.658 81.2026 185.837C81.3484 184.273 81.5187 182.712 81.7092 181.153C81.7597 180.74 81.8116 180.327 81.8636 179.914C81.8867 179.736 81.9097 179.556 81.9328 179.378C81.9689 179.099 82.0252 178.572 81.9603 179.165C82.0541 178.306 82.1984 177.45 82.3239 176.596C83.4264 169.124 84.871 161.703 86.493 154.326C88.3113 146.057 90.3677 137.841 92.5958 129.674C94.8946 121.247 97.3811 112.872 100.048 104.555C102.598 96.6069 105.312 88.7095 108.243 80.8911C108.595 79.9532 108.95 79.0153 109.308 78.0803C109.793 76.8115 108.771 75.1845 107.494 74.8954C106.011 74.5602 104.819 75.3471 104.299 76.705Z" fill="#B1C824"/>
    <path d="M124.388 148.588C124.84 160.163 125.391 171.736 125.886 183.311C126.034 186.767 126.176 190.223 126.311 193.679C126.364 195.032 127.468 196.334 128.908 196.269C130.271 196.208 131.562 195.13 131.506 193.679C131.054 182.104 130.503 170.531 130.008 158.957C129.861 155.5 129.718 152.044 129.584 148.588C129.53 147.236 128.426 145.934 126.986 145.998C125.624 146.06 124.332 147.139 124.388 148.588Z" fill="#B1C824"/>
    <path d="M128.908 196.83C134.482 196.827 140.049 196.582 145.622 196.555C146.759 196.549 147.827 195.755 148.127 194.655C148.823 192.1 147.98 189.224 146.39 187.171C144.803 185.124 142.214 183.925 139.766 183.259C138.456 182.902 136.883 183.702 136.571 185.067C136.259 186.432 136.982 187.871 138.385 188.252C138.887 188.388 139.375 188.547 139.867 188.715C140.498 188.932 139.401 188.472 139.983 188.761C140.159 188.849 140.336 188.932 140.508 189.026C140.934 189.257 141.341 189.521 141.735 189.802C141.859 189.892 142.287 190.338 141.9 189.923C142.023 190.054 142.191 190.26 142.336 190.359C142.459 190.502 142.42 190.447 142.219 190.195C142.294 190.297 142.367 190.402 142.434 190.51C142.54 190.676 142.638 190.845 142.727 191.018C142.792 191.143 142.978 191.704 142.795 191.129C142.867 191.353 142.954 191.57 143.019 191.796C143.062 191.947 143.227 192.327 143.176 192.475C143.165 192.375 143.153 192.274 143.14 192.173C143.155 192.3 143.166 192.426 143.172 192.554C143.181 192.74 143.168 192.924 143.17 193.11C143.144 193.403 143.153 193.348 143.198 192.948C143.176 193.059 143.15 193.17 143.117 193.278C143.953 192.645 144.787 192.011 145.622 191.378C140.049 191.405 134.482 191.65 128.908 191.652C127.549 191.652 126.247 192.843 126.311 194.242C126.373 195.643 127.452 196.83 128.908 196.83Z" fill="#B1C824"/>
    <path d="M137.139 144.325C135.997 154.861 135.587 165.471 135.929 176.063C136.028 179.088 136.188 182.112 136.404 185.131C136.501 186.479 137.53 187.787 139.002 187.721C140.325 187.662 141.703 186.579 141.599 185.131C140.839 174.561 140.81 163.943 141.533 153.37C141.739 150.35 142.008 147.334 142.334 144.324C142.48 142.973 141.035 141.677 139.736 141.734C138.204 141.803 137.296 142.876 137.139 144.325Z" fill="#B1C824"/>
    <path d="M117.921 149.442C117.491 160.812 117.059 172.182 116.629 183.553C116.5 186.981 116.37 190.408 116.24 193.836C116.188 195.191 117.471 196.486 118.837 196.425C120.289 196.361 121.38 195.287 121.435 193.836C121.865 182.466 122.296 171.096 122.726 159.724C122.856 156.296 122.986 152.87 123.116 149.442C123.168 148.087 121.885 146.792 120.519 146.853C119.067 146.917 117.976 147.99 117.921 149.442Z" fill="#B1C824"/>
    <path d="M118.837 191.805C113.417 191.802 108.002 191.558 102.583 191.53C103.419 192.163 104.253 192.798 105.089 193.43C105.057 193.321 105.031 193.212 105.011 193.101C105.052 193.472 105.064 193.556 105.047 193.353C105.076 193.151 105.028 192.914 105.038 192.708C105.042 192.645 105.047 192.582 105.051 192.518C105.081 192.226 105.076 192.264 105.032 192.629C105.035 192.629 105.152 192.073 105.159 192.048C105.21 191.854 105.282 191.665 105.334 191.473C105.47 190.976 105.126 191.858 105.418 191.263C105.517 191.058 105.625 190.858 105.747 190.666C105.781 190.612 105.814 190.559 105.849 190.506C106.015 190.273 105.989 190.299 105.773 190.584C105.8 190.483 106.055 190.266 106.13 190.195C106.236 190.095 106.514 189.864 106.24 190.08C106.633 189.771 107.058 189.489 107.493 189.24C107.667 189.141 107.843 189.046 108.024 188.957C108.135 188.902 108.725 188.699 108.145 188.892C108.644 188.727 109.135 188.55 109.643 188.407C110.95 188.042 111.891 186.557 111.457 185.222C111.025 183.893 109.663 183.021 108.262 183.414C105.713 184.128 103.172 185.415 101.58 187.589C100.123 189.58 99.4447 192.405 100.081 194.81C100.373 195.913 101.453 196.705 102.586 196.71C108.005 196.738 113.42 196.982 118.84 196.985C120.199 196.985 121.501 195.794 121.437 194.396C121.371 192.99 120.293 191.805 118.837 191.805Z" fill="#B1C824"/>
    <path d="M105.708 144.479C106.818 155.018 107.216 165.625 106.884 176.217C106.789 179.242 106.633 182.266 106.423 185.285C106.327 186.639 107.685 187.934 109.02 187.875C110.508 187.809 111.517 186.735 111.618 185.285C112.358 174.715 112.385 164.097 111.683 153.524C111.482 150.505 111.221 147.488 110.903 144.478C110.762 143.135 109.81 141.821 108.306 141.888C107.02 141.947 105.555 143.036 105.708 144.479Z" fill="#B1C824"/>
    <path d="M119.032 95.4618C116.964 96.2616 115.522 97.6081 114.798 99.7514C114.194 101.537 114.215 103.643 114.645 105.47C114.955 106.79 116.541 107.698 117.84 107.278C119.221 106.832 119.987 105.507 119.654 104.093C119.632 103.998 119.613 103.903 119.596 103.807C119.579 103.712 119.573 103.61 119.548 103.515C119.736 104.241 119.589 103.798 119.57 103.565C119.54 103.189 119.531 102.814 119.547 102.437C119.554 102.246 119.567 102.054 119.589 101.865C119.524 102.43 119.649 101.663 119.665 101.603C119.68 101.545 119.866 100.92 119.765 101.214C119.669 101.493 119.886 100.974 119.921 100.915C119.97 100.829 120.023 100.744 120.081 100.662C120.193 100.499 120.151 100.554 119.955 100.823C119.928 100.754 120.3 100.541 120.303 100.481C120.297 100.587 119.763 100.819 120.179 100.593C120.27 100.544 120.359 100.492 120.449 100.44C120.991 100.13 119.817 100.684 120.414 100.453C121.677 99.9658 122.691 98.6927 122.228 97.2686C121.83 96.0458 120.388 94.9367 119.032 95.4618Z" fill="#B1C824"/>
    <path d="M143.376 101.737C147.226 112.069 151.032 122.424 154.387 132.928C157.644 143.124 160.428 153.461 162.673 163.925C164.131 170.719 165.376 177.558 166.468 184.421C166.682 185.763 168.432 186.626 169.663 186.229C171.125 185.757 171.707 184.481 171.477 183.044C169.62 171.392 167.308 159.811 164.31 148.395C161.644 138.248 158.435 128.257 154.95 118.363C152.827 112.338 150.615 106.346 148.384 100.359C147.912 99.0926 146.604 98.0929 145.189 98.5503C143.946 98.9517 142.87 100.377 143.376 101.737Z" fill="#B1C824"/>
    <path d="M168.284 186.229C171.999 187.013 176.08 186.673 179.61 185.271C183.447 183.746 186.581 180.918 188.306 177.137C189.326 174.902 189.91 172.559 189.941 170.094C188.239 170.325 186.539 170.553 184.838 170.783C184.842 170.812 184.893 171.209 184.857 170.919C184.818 170.601 184.876 171.104 184.884 171.176C184.912 171.418 184.935 171.66 184.956 171.901C185.005 172.467 185.039 173.033 185.053 173.602C185.085 174.735 185.047 175.871 184.932 176.999C184.92 177.11 184.842 177.729 184.877 177.497C184.92 177.206 184.858 177.602 184.854 177.631C184.826 177.789 184.802 177.949 184.773 178.107C184.672 178.659 184.552 179.21 184.409 179.754C184.277 180.258 184.125 180.755 183.955 181.247C183.875 181.475 183.793 181.699 183.707 181.922C183.682 181.984 183.489 182.444 183.61 182.168C183.715 181.926 183.516 182.365 183.497 182.407C183.069 183.324 182.555 184.195 181.995 185.038C181.76 185.392 181.517 185.741 181.265 186.084C181.214 186.153 180.966 186.495 181.174 186.212C181.369 185.947 181.174 186.213 181.138 186.258C180.975 186.459 180.812 186.659 180.643 186.856C180.08 187.509 179.474 188.128 178.816 188.686C178.745 188.746 178.291 189.119 178.562 188.902C178.845 188.676 178.296 189.09 178.213 189.148C177.848 189.398 177.47 189.629 177.08 189.839C176.855 189.96 176.625 190.068 176.396 190.179C176.338 190.206 176.037 190.319 176.353 190.201C176.687 190.074 176.276 190.224 176.213 190.247C175.749 190.416 175.276 190.554 174.794 190.661C174.529 190.72 174.262 190.763 173.995 190.809C174.57 190.711 173.869 190.81 173.641 190.825C173.048 190.859 172.456 190.848 171.863 190.809C170.505 190.718 169.205 192.065 169.266 193.398C169.332 194.879 170.409 195.89 171.863 195.988C176.436 196.293 180.698 194.407 183.799 191.094C187.05 187.621 189.273 183.245 189.935 178.531C190.366 175.46 190.287 172.474 189.848 169.408C189.667 168.139 188.134 167.402 186.998 167.554C185.723 167.725 184.763 168.798 184.746 170.097C184.741 170.395 184.733 170.693 184.712 170.991C184.707 171.068 184.614 171.871 184.665 171.534C184.715 171.196 184.578 171.996 184.562 172.071C184.503 172.363 184.434 172.652 184.356 172.94C184.219 173.445 184.046 173.934 183.865 174.424C183.656 174.991 184.026 174.135 183.774 174.629C183.639 174.895 183.515 175.165 183.372 175.427C183.122 175.886 182.849 176.33 182.552 176.759C182.467 176.881 182.38 177.002 182.291 177.123C182.471 176.896 182.47 176.897 182.285 177.129C182.141 177.3 181.998 177.471 181.848 177.638C181.499 178.026 181.128 178.395 180.737 178.74C180.633 178.832 179.861 179.41 180.444 179C180.258 179.131 180.073 179.264 179.881 179.386C179.457 179.658 179.015 179.902 178.561 180.121C178.374 180.211 178.185 180.296 177.995 180.38C178.597 180.119 177.744 180.463 177.633 180.504C176.68 180.84 175.699 181.092 174.705 181.267C174.63 181.28 173.829 181.393 174.189 181.352C174.552 181.311 173.746 181.394 173.673 181.4C173.176 181.441 172.677 181.464 172.179 181.466C171.696 181.467 171.211 181.449 170.729 181.408C170.595 181.397 170.461 181.384 170.326 181.368C170.028 181.332 170.061 181.336 170.426 181.381C170.199 181.404 169.886 181.286 169.665 181.239C168.339 180.96 166.795 181.627 166.47 183.047C166.173 184.343 166.863 185.928 168.284 186.229Z" fill="#B1C824"/>
    <path d="M78.8032 197.421C79.5248 197.285 80.2478 197.159 80.9736 197.042C81.3272 196.986 81.6808 196.932 82.0358 196.881C82.2104 196.855 82.3864 196.831 82.5625 196.808C82.3085 196.842 82.3403 196.839 82.6563 196.798C83.9868 196.644 85.3173 196.51 86.6551 196.432C89.4388 196.27 92.2268 196.312 95.0091 196.488C96.3685 196.575 97.6673 195.236 97.6067 193.899C97.5403 192.423 96.4652 191.402 95.0091 191.31C89.0968 190.936 83.2451 191.341 77.4237 192.428C76.0845 192.676 75.2027 194.359 75.6097 195.612C76.0715 197.039 77.3703 197.688 78.8032 197.421Z" fill="#B1C824"/>
    <path d="M152.817 196.27C160.244 196.27 167.679 196.297 175.094 195.821C176.447 195.733 177.756 194.692 177.691 193.232C177.632 191.904 176.545 190.549 175.094 190.642C167.679 191.12 160.243 191.091 152.817 191.091C151.457 191.091 150.156 192.282 150.219 193.68C150.283 195.083 151.361 196.27 152.817 196.27Z" fill="#B1C824"/>
    <path d="M125.943 89.4929C127.112 89.4929 128.06 88.1398 128.06 86.4706C128.06 84.8014 127.112 83.4482 125.943 83.4482C124.774 83.4482 123.826 84.8014 123.826 86.4706C123.826 88.1398 124.774 89.4929 125.943 89.4929Z" fill="#B1C824"/>
    <path d="M134.486 89.4929C135.655 89.4929 136.603 88.1398 136.603 86.4706C136.603 84.8014 135.655 83.4482 134.486 83.4482C133.317 83.4482 132.369 84.8014 132.369 86.4706C132.369 88.1398 133.317 89.4929 134.486 89.4929Z" fill="#B1C824"/>
  </g>
  <defs>
    <clipPath id="clip0_462_3255">
      <rect width="114.712" height="148.11" fill="white" transform="translate(75.5078 49.3701)"/>
    </clipPath>
  </defs>
</svg>